<?xml version="1.0" encoding="utf-8"?>
<!-- Generator: Adobe Illustrator 16.0.0, SVG Export Plug-In . SVG Version: 6.00 Build 0)  -->
<!DOCTYPE svg PUBLIC "-//W3C//DTD SVG 1.1//EN" "http://www.w3.org/Graphics/SVG/1.1/DTD/svg11.dtd">
<svg version="1.1" id="Layer_1" xmlns="http://www.w3.org/2000/svg" xmlns:xlink="http://www.w3.org/1999/xlink" x="0px" y="0px"
	 width="50px" height="85px" viewBox="0 0 50 85" enable-background="new 0 0 50 85" xml:space="preserve">
<path fill-rule="evenodd" clip-rule="evenodd" fill="#010101" d="M10.648,34.349v7.276l9.821,5.092v-6.911l17.824-22.371
	l-16.187,2.365L10.648,34.349L10.648,34.349z M40.657,49.627c3.428,4.617,2.331,14.154-2.364,19.098
	c-5.68,5.979-16.187,8.002-28.373,3.09V82l-9.821-5.273V66.359c6.229,2.803,11.878,3.24,16.724,2.703
	c12.922-1.429,18.56-13.252,14.741-23.255C35.699,46.164,38.92,47.285,40.657,49.627L40.657,49.627z M33.109,37.806l2.273-2.911
	l8.093,4.365C40.935,37.861,37.353,37.493,33.109,37.806L33.109,37.806z M40.111,1.612l10.004,5.457l-40.049,5.617l0.036,8.568
	L0.099,16.161V7.25L40.111,1.612z"/>
</svg>
